<?xml version="1.0" encoding="UTF-8" standalone="no"?>
<!-- Created with Inkscape (http://www.inkscape.org/) -->

<svg
   width="129.17584mm"
   height="112.30551mm"
   viewBox="0 0 129.17584 112.30551"
   version="1.1"
   id="svg2435"
   xmlns:inkscape="http://www.inkscape.org/namespaces/inkscape"
   xmlns:sodipodi="http://sodipodi.sourceforge.net/DTD/sodipodi-0.dtd"
   xmlns="http://www.w3.org/2000/svg"
   xmlns:svg="http://www.w3.org/2000/svg">
  <sodipodi:namedview
     id="namedview2437"
     pagecolor="#ffffff"
     bordercolor="#666666"
     borderopacity="1.0"
     inkscape:showpageshadow="2"
     inkscape:pageopacity="0.0"
     inkscape:pagecheckerboard="0"
     inkscape:deskcolor="#d1d1d1"
     inkscape:document-units="mm"
     showgrid="false" />
  <defs
     id="defs2432">
    <clipPath
       clipPathUnits="userSpaceOnUse"
       id="clipPath78">
      <path
         d="M 0,500 H 750 V 0 H 0 Z"
         id="path76" />
    </clipPath>
    <clipPath
       clipPathUnits="userSpaceOnUse"
       id="clipPath106">
      <path
         d="m 377.525,347.886 h 8.283 v -7.834 h -8.283 z"
         id="path104" />
    </clipPath>
    <clipPath
       clipPathUnits="userSpaceOnUse"
       id="clipPath122">
      <path
         d="m 395.46,347.998 h 8.282 v -7.835 h -8.282 z"
         id="path120" />
    </clipPath>
    <clipPath
       clipPathUnits="userSpaceOnUse"
       id="clipPath146">
      <path
         d="M 392.506,319.421 H 585.237 V 189.833 H 392.506 Z"
         id="path144" />
    </clipPath>
  </defs>
  <g
     inkscape:label="Capa 1"
     inkscape:groupmode="layer"
     id="layer1"
     transform="translate(-40.412076,-92.347245)">
    <g
       id="g5642"
       transform="translate(14.988491,66.084404)">
      <g
         id="g72"
         transform="matrix(0.35277777,0,0,-0.35277777,-96.584827,151.373)">
        <g
           id="g74"
           clip-path="url(#clipPath78)">
          <g
             id="g80"
             transform="translate(502.2809,109.6306)">
            <path
               d="M 0,0 H -0.036 L 0,0.004 Z m -1.965,52.956 -6.44,173.317 h -0.007 l -0.082,2.331 c -0.332,9.131 -8.599,16.469 -18.447,16.408 l -112.243,-0.762 c -9.86,-0.066 -17.567,-7.511 -17.236,-16.633 l 0.125,-3.404 0.15,0.002 -0.15,-0.002 8.363,-225.054 0.089,-2.488 c 0.332,-9.131 8.587,-16.474 18.447,-16.398 l 112.242,0.752 c 9.849,0.061 17.58,7.518 17.248,16.648 z"
               style="fill:#b5def2;fill-opacity:1;fill-rule:nonzero;stroke:none"
               id="path82" />
          </g>
          <g
             id="g84"
             transform="translate(371.2736,108.7897)">
            <path
               d="m 0,0 h -16.924 l -0.219,5.872 h 16.925 z"
               style="fill:#bfeaff;fill-opacity:1;fill-rule:nonzero;stroke:none"
               id="path86" />
          </g>
          <g
             id="g88"
             transform="translate(362.9098,333.8434)">
            <path
               d="m 0,0 h -16.924 l 0.245,-6.599 H 0.246 Z"
               style="fill:#bfeaff;fill-opacity:1;fill-rule:nonzero;stroke:none"
               id="path90" />
          </g>
          <g
             id="g92"
             transform="translate(510.7106,338.235)">
            <path
               d="m 0,0 c -0.332,9.131 -8.599,16.468 -18.447,16.407 l -112.242,-0.761 c -9.86,-0.066 -17.568,-7.512 -17.237,-16.633 l 0.125,-3.405 147.883,2.06 z"
               style="fill:#dfecf3;fill-opacity:1;fill-rule:nonzero;stroke:none"
               id="path94" />
          </g>
          <g
             id="g96"
             transform="translate(371.3615,106.3015)">
            <path
               d="M 0,0 -0.088,2.488 C 1.088,2.399 147.843,3.329 147.843,3.329 l -4.206,113.141 4.3,-115.468 c 0.332,-9.131 -7.398,-16.587 -17.248,-16.648 L 18.448,-16.397 C 8.587,-16.474 0.332,-9.131 0,0"
               style="fill:#dfecf3;fill-opacity:1;fill-rule:nonzero;stroke:none"
               id="path98" />
          </g>
          <g
             id="g100">
            <g
               id="g102" />
            <g
               id="g114">
              <g
                 clip-path="url(#clipPath106)"
                 id="g112">
                <g
                   transform="translate(381.3385,340.0544)"
                   id="g110">
                  <path
                     d="M 0,0 C 2.274,-0.083 4.272,1.604 4.456,3.768 4.639,5.925 2.938,7.746 0.662,7.829 -1.619,7.912 -3.617,6.226 -3.8,4.068 -3.982,1.904 -2.282,0.083 0,0"
                     style="fill:#1b374f;fill-opacity:1;fill-rule:nonzero;stroke:none"
                     id="path108" />
                </g>
              </g>
            </g>
          </g>
          <g
             id="g116">
            <g
               id="g118" />
            <g
               id="g130">
              <g
                 clip-path="url(#clipPath122)"
                 id="g128">
                <g
                   transform="translate(399.2731,340.1662)"
                   id="g126">
                  <path
                     d="M 0,0 C 2.274,-0.083 4.272,1.604 4.456,3.768 4.639,5.925 2.938,7.746 0.662,7.829 -1.619,7.912 -3.617,6.226 -3.8,4.068 -3.982,1.904 -2.282,0.083 0,0"
                     style="fill:#1b374f;fill-opacity:1;fill-rule:nonzero;stroke:none"
                     id="path124" />
                </g>
              </g>
            </g>
          </g>
          <g
             id="g132"
             transform="translate(449.6842,92.8337)">
            <path
               d="M 0,0 C 4.192,0.028 7.479,3.2 7.336,7.083 7.194,10.965 3.679,14.092 -0.515,14.063 -4.707,14.035 -7.992,10.863 -7.851,6.98 -7.708,3.098 -4.192,-0.028 0,0"
               style="fill:#9bb3c2;fill-opacity:1;fill-rule:nonzero;stroke:none"
               id="path134" />
          </g>
          <g
             id="g136"
             transform="translate(510.7994,335.904)">
            <path
               d="m 0,0 8.408,-226.27 -147.934,-0.844 -8.364,225.053 z"
               style="fill:#326896;fill-opacity:1;fill-rule:nonzero;stroke:none"
               id="path138" />
          </g>
          <g
             id="g140">
            <g
               id="g142" />
            <g
               id="g154">
              <g
                 clip-path="url(#clipPath146)"
                 opacity="0.5"
                 id="g152">
                <g
                   transform="translate(579.1403,319.4206)"
                   id="g150">
                  <path
                     d="m 0,0 6.097,-126.54 -186.623,-3.048 -6.109,126.486 z"
                     style="fill:#fcfffc;fill-opacity:1;fill-rule:nonzero;stroke:none"
                     id="path148" />
                </g>
              </g>
            </g>
          </g>
          <text
             xml:space="preserve"
             transform="matrix(0.93021386,-0.07578956,-0.00113918,-0.99712384,533.8251,222.973)"
             style="font-variant:normal;font-weight:600;font-stretch:normal;font-size:13.2551px;font-family:'Montserrat SemiBold';-inkscape-font-specification:Montserrat-SemiBold;writing-mode:lr-tb;fill:#fcfffc;fill-opacity:1;fill-rule:nonzero;stroke:none"
             id="text164"><tspan
               x="0 8.1784115"
               y="0"
               sodipodi:role="line"
               id="tspan156">12</tspan><tspan
               x="-33.045025 -24.866613"
               y="3.4330771"
               sodipodi:role="line"
               id="tspan158">11</tspan><tspan
               x="-68.688049 -60.50964"
               y="6.7468581"
               sodipodi:role="line"
               id="tspan160">10</tspan><tspan
               x="1.9617584"
               y="-28.100863"
               id="tspan162">8</tspan></text>
          <g
             id="g166"
             transform="translate(424.1178,304.0295)">
            <path
               d="M 0,0 4.939,-102.288"
               style="fill:none;stroke:#1b374f;stroke-width:0.5;stroke-linecap:butt;stroke-linejoin:miter;stroke-miterlimit:10;stroke-dasharray:none;stroke-opacity:1"
               id="path168" />
          </g>
          <g
             id="g170"
             transform="translate(456.1041,304.3752)">
            <path
               d="M 0,0 4.957,-102.65"
               style="fill:none;stroke:#1b374f;stroke-width:0.5;stroke-linecap:butt;stroke-linejoin:miter;stroke-miterlimit:10;stroke-dasharray:none;stroke-opacity:1"
               id="path172" />
          </g>
          <g
             id="g174"
             transform="translate(488.0807,304.9069)">
            <path
               d="M 0,0 4.942,-102.332"
               style="fill:none;stroke:#1b374f;stroke-width:0.5;stroke-linecap:butt;stroke-linejoin:miter;stroke-miterlimit:10;stroke-dasharray:none;stroke-opacity:1"
               id="path176" />
          </g>
          <g
             id="g178"
             transform="translate(520.0582,305.4382)">
            <path
               d="M 0,0 4.941,-102.319"
               style="fill:none;stroke:#1b374f;stroke-width:0.5;stroke-linecap:butt;stroke-linejoin:miter;stroke-miterlimit:10;stroke-dasharray:none;stroke-opacity:1"
               id="path180" />
          </g>
          <g
             id="g182"
             transform="translate(552.0358,305.9694)">
            <path
               d="M 0,0 4.941,-102.328"
               style="fill:none;stroke:#1b374f;stroke-width:0.5;stroke-linecap:butt;stroke-linejoin:miter;stroke-miterlimit:10;stroke-dasharray:none;stroke-opacity:1"
               id="path184" />
          </g>
          <g
             id="g186"
             transform="translate(565.0963,296.5554)">
            <path
               d="M 0,0 -150.929,-2.508"
               style="fill:none;stroke:#1b374f;stroke-width:0.5;stroke-linecap:butt;stroke-linejoin:miter;stroke-miterlimit:10;stroke-dasharray:none;stroke-opacity:1"
               id="path188" />
          </g>
          <g
             id="g190"
             transform="translate(566.8229,268.7849)">
            <path
               d="M 0,0 -150.929,-2.508"
               style="fill:none;stroke:#1b374f;stroke-width:0.5;stroke-linecap:butt;stroke-linejoin:miter;stroke-miterlimit:10;stroke-dasharray:none;stroke-opacity:1"
               id="path192" />
          </g>
          <g
             id="g194"
             transform="translate(568.5494,241.0143)">
            <path
               d="M 0,0 -150.929,-2.509"
               style="fill:none;stroke:#1b374f;stroke-width:0.5;stroke-linecap:butt;stroke-linejoin:miter;stroke-miterlimit:10;stroke-dasharray:none;stroke-opacity:1"
               id="path196" />
          </g>
          <g
             id="g198"
             transform="translate(570.276,213.2438)">
            <path
               d="M 0,0 -150.929,-2.509"
               style="fill:none;stroke:#1b374f;stroke-width:0.5;stroke-linecap:butt;stroke-linejoin:miter;stroke-miterlimit:10;stroke-dasharray:none;stroke-opacity:1"
               id="path200" />
          </g>
          <g
             id="g202"
             transform="translate(499.7819,261.2404)">
            <path
               d="m 0,0 37.61,0.625 1.578,-32.67 -37.622,-0.41 z"
               style="fill:#326896;fill-opacity:1;fill-rule:nonzero;stroke:none"
               id="path204" />
          </g>
          <text
             xml:space="preserve"
             transform="matrix(0.93022002,-0.07579168,-0.00113789,-0.99712367,517.2211,239.007)"
             style="font-variant:normal;font-weight:600;font-stretch:normal;font-size:17.6642px;font-family:'Montserrat SemiBold';-inkscape-font-specification:Montserrat-SemiBold;writing-mode:lr-tb;fill:#fcfffc;fill-opacity:1;fill-rule:nonzero;stroke:none"
             id="text208"><tspan
               x="0"
               y="0"
               id="tspan206">7</tspan></text>
          <text
             xml:space="preserve"
             transform="matrix(0.93021386,-0.07578956,-0.00113918,-0.99712384,439.3123,275.4104)"
             style="font-variant:normal;font-weight:600;font-stretch:normal;font-size:13.2551px;font-family:'Montserrat SemiBold';-inkscape-font-specification:Montserrat-SemiBold;writing-mode:lr-tb;fill:#fcfffc;fill-opacity:1;fill-rule:nonzero;stroke:none"
             id="text224"><tspan
               x="0"
               y="0"
               id="tspan210">1</tspan><tspan
               x="33.243851"
               y="-3.8174758"
               id="tspan212">2</tspan><tspan
               x="66.500954"
               y="-7.6216965"
               id="tspan214">3</tspan><tspan
               x="99.744804"
               y="-11.439172"
               id="tspan216">4</tspan><tspan
               x="0.026510248"
               y="27.212769"
               id="tspan218">5</tspan><tspan
               x="1.5906149"
               y="54.677387"
               id="tspan220">9</tspan><tspan
               x="33.455933"
               y="23.594122"
               id="tspan222">6</tspan></text>
          <g
             id="g226"
             transform="translate(524.9645,238.486)">
            <path
               d="m 0,0 c -2.637,-2.222 -5.82,-4.02 -8.863,-4.739 -4.802,-1.136 -8.087,1.716 -8.292,6.16 -0.211,4.558 3.256,10.162 7.673,12.839 -1.345,-1.818 -2.208,-4.042 -2.289,-6.67 -0.02,-0.669 2.994,-0.313 2.996,-0.244 0.084,2.741 1.228,5.617 3.424,7.982 0.152,0.163 0.316,0.322 0.48,0.481 0.53,0.032 1.061,0.019 1.589,-0.06 0.987,-0.147 3.025,0.156 0.979,0.46 -0.627,0.094 -1.266,0.158 -1.916,0.189 3.414,2.9 8.692,4.65 10.831,1.664 C 9.97,13.375 5.014,4.226 0,0 m 7.062,19.594 c -4.335,1.451 -10.674,0.26 -14.779,-3.405 -1.877,-0.329 -3.778,-1.039 -5.63,-2.299 -4.455,-3.034 -7.405,-8.618 -6.714,-13.119 1.217,-7.924 11.329,-7.907 18.561,-4.094 4.81,2.535 9.037,6.909 10.938,12.022 1.687,4.54 1.667,9.542 -2.376,10.895"
               style="fill:#fb6767;fill-opacity:1;fill-rule:nonzero;stroke:none"
               id="path228" />
          </g>
          <g
             id="g230"
             transform="translate(532.7086,317.9704)">
            <path
               d="m 0,0 0.011,-0.028 c 2.54,-6.906 -2.228,-14.138 -9.393,-14.246 l -66.739,-1.015 c -4.529,-0.069 -8.672,2.831 -10.279,7.196 -2.544,6.905 2.221,14.139 9.386,14.251 L -10.285,7.2 C -5.753,7.271 -1.606,4.369 0,0"
               style="fill:#deebf2;fill-opacity:1;fill-rule:nonzero;stroke:none"
               id="path232" />
          </g>
          <g
             id="g234"
             transform="translate(551.4264,177.3815)">
            <path
               d="m 0,0 1.286,-34.626 -74.314,-1.035 -1.287,34.626 z"
               style="fill:#fbc367;fill-opacity:1;fill-rule:nonzero;stroke:none"
               id="path236" />
          </g>
          <g
             id="g238"
             transform="translate(551.4264,177.3815)">
            <path
               d="M 0,0 -73.028,-35.661"
               style="fill:none;stroke:#1b374f;stroke-width:0.5;stroke-linecap:butt;stroke-linejoin:miter;stroke-miterlimit:10;stroke-dasharray:none;stroke-opacity:1"
               id="path240" />
          </g>
          <g
             id="g242"
             transform="translate(477.111,176.3464)">
            <path
               d="M 0,0 75.602,-33.591"
               style="fill:none;stroke:#1b374f;stroke-width:0.5;stroke-linecap:butt;stroke-linejoin:miter;stroke-miterlimit:10;stroke-dasharray:none;stroke-opacity:1"
               id="path244" />
          </g>
          <text
             xml:space="preserve"
             transform="matrix(0.99993326,0.02258749,0.01155341,-0.99751871,474.732,308.7996)"
             style="font-variant:normal;font-weight:600;font-stretch:normal;font-size:14.8268px;font-family:'Montserrat SemiBold';-inkscape-font-specification:Montserrat-SemiBold;writing-mode:lr-tb;fill:#414141;fill-opacity:1;fill-rule:nonzero;stroke:none"
             id="text248"><tspan
               x="0 7.7692375 17.554918 22.195704"
               y="0"
               sodipodi:role="line"
               id="tspan246">July</tspan></text>
          <g
             id="g250"
             transform="translate(460.3658,313.7814)">
            <path
               d="M 0,0 3.141,2.963 C 3.898,3.678 5.154,3.143 5.222,2.077 L 5.581,-3.597 C 5.649,-4.663 4.467,-5.291 3.623,-4.637 l -3.501,2.71 C -0.497,-1.447 -0.556,-0.524 0,0"
               style="fill:#ffffff;fill-opacity:1;fill-rule:nonzero;stroke:none"
               id="path252" />
          </g>
          <g
             id="g254"
             transform="translate(518.6608,314.07)">
            <path
               d="m 0,0 -3.141,-2.963 c -0.757,-0.715 -2.012,-0.18 -2.081,0.886 l -0.359,5.674 c -0.067,1.066 1.114,1.693 1.958,1.04 L -0.122,1.926 C 0.498,1.447 0.557,0.524 0,0"
               style="fill:#ffffff;fill-opacity:1;fill-rule:nonzero;stroke:none"
               id="path256" />
          </g>
          <g
             id="g258"
             transform="translate(645.486,293.8644)">
            <path
               d="m 0,0 c -0.103,-24.768 -19.831,-44.764 -44.064,-44.663 -15.66,0.066 -29.36,8.514 -37.072,21.163 l -25.381,-4.617 19.899,18.163 c -0.75,3.317 -1.152,6.768 -1.137,10.32 0.104,24.767 19.832,44.763 44.065,44.662 C -19.457,44.927 0.104,24.768 0,0"
               style="fill:#fcfffc;fill-opacity:1;fill-rule:nonzero;stroke:none"
               id="path260" />
          </g>
          <path
             d="m 610.153,273.337 h -15.608 v 41.42 h 15.608 z"
             style="fill:#fb6767;fill-opacity:1;fill-rule:nonzero;stroke:none"
             id="path262" />
          <path
             d="m 581.638,301.851 h 41.421 v -15.607 h -41.421 z"
             style="fill:#fb6767;fill-opacity:1;fill-rule:nonzero;stroke:none"
             id="path264" />
          <g
             id="g266"
             transform="translate(594.0416,149.863)">
            <path
               d="M 0,0 C -2.603,-2.168 -3.47,-31.012 -3.47,-31.012 L 17.463,9.326 C 13.445,8.892 2.603,2.169 0,0"
               style="fill:#e3f8ff;fill-opacity:1;fill-rule:nonzero;stroke:none"
               id="path268" />
          </g>
          <g
             id="g270"
             transform="translate(583.3561,61.7429)">
            <path
               d="m 0,0 -64.228,-10.698 1.157,-14.74 H 30.94 c 5.495,0 3.848,27.046 3.848,27.046 z"
               style="fill:#db8158;fill-opacity:1;fill-rule:nonzero;stroke:none"
               id="path272" />
          </g>
          <g
             id="g274"
             transform="translate(658.0201,251.6306)">
            <path
               d="M 0,0 C 0,0 10.164,23.945 35.67,13.17 59.154,3.248 61.741,-34 33.627,-43.316 9.92,-51.173 -7.191,-18.279 0,0"
               style="fill:#282828;fill-opacity:1;fill-rule:nonzero;stroke:none"
               id="path276" />
          </g>
          <g
             id="g278"
             transform="translate(650.6285,252.4597)">
            <path
               d="m 0,0 c 0,0 19.465,4.332 30.976,-10.115 12.264,-15.396 12.35,-35.222 3.92,-41.17 z"
               style="fill:#fbc367;fill-opacity:1;fill-rule:nonzero;stroke:none"
               id="path280" />
          </g>
          <g
             id="g282"
             transform="translate(634.8893,156.5222)">
            <path
               d="M 0,0 C -46.575,2.022 -50.636,22.083 -50.859,38.423 -51.177,61.714 -37.386,96.199 -3.121,99.832 60.726,106.599 80.253,-3.483 0,0"
               style="fill:#282828;fill-opacity:1;fill-rule:nonzero;stroke:none"
               id="path284" />
          </g>
          <g
             id="g286"
             transform="translate(586.8776,36.3044)">
            <path
               d="m 0,0 h 82.971 c -2.412,7.524 -2.493,17.123 -6.054,29.197 l 14.88,88.051 -24.916,10.404 c 0,0 -38.82,-4.303 -42.254,-4.767 C 21.193,122.42 -1.719,87.354 -3.592,85.097 -5.465,82.839 -2.031,62.238 -2.031,57.723 -2.031,54.844 -0.854,22.83 0,0"
               style="fill:#fcfffc;fill-opacity:1;fill-rule:nonzero;stroke:none"
               id="path288" />
          </g>
          <g
             id="g290"
             transform="translate(660.361,161.4089)">
            <path
               d="M 0,0 5.495,-11.328 -6.599,-18.052 0,-25.034 c 0,0 -9.674,-13.837 -12.298,-18.824 -2.624,-4.989 0.645,-51.181 -10.64,-53.133"
               style="fill:none;stroke:#1f1f1f;stroke-width:0.75;stroke-linecap:butt;stroke-linejoin:miter;stroke-miterlimit:10;stroke-dasharray:none;stroke-opacity:1"
               id="path292" />
          </g>
          <g
             id="g294"
             transform="translate(626.0494,160.864)">
            <path
               d="m 0,0 c 0,0 -17.263,-29.868 -19.322,-36.808 -2.06,-6.939 0.63,-87.752 0.63,-87.752 h 31.298 c 0,0 -3.481,74.741 -2.794,83.632 0.686,8.891 24.5,41.473 24.5,41.473 l -6.603,2.548 z"
               style="fill:#fbc367;fill-opacity:1;fill-rule:nonzero;stroke:none"
               id="path296" />
          </g>
          <g
             id="g298"
             transform="translate(630.5865,67.5622)">
            <path
               d="M 0,0 -19.952,-18"
               style="fill:none;stroke:#1f1f1f;stroke-width:0.75;stroke-linecap:butt;stroke-linejoin:miter;stroke-miterlimit:10;stroke-dasharray:none;stroke-opacity:1"
               id="path300" />
          </g>
          <g
             id="g302"
             transform="translate(633.9176,61.7067)">
            <path
               d="M 0,0 -4.85,-10.626"
               style="fill:none;stroke:#1f1f1f;stroke-width:0.75;stroke-linecap:butt;stroke-linejoin:miter;stroke-miterlimit:10;stroke-dasharray:none;stroke-opacity:1"
               id="path304" />
          </g>
          <g
             id="g306"
             transform="translate(605.9508,101.9362)">
            <path
               d="m 0,0 c 0,0 21.945,-1.157 30.175,0 l 0.309,-13.384 c 0,0 -22.968,-0.374 -30.354,0.081 z"
               style="fill:#e8b45f;fill-opacity:1;fill-rule:nonzero;stroke:none"
               id="path308" />
          </g>
          <g
             id="g310"
             transform="translate(631.9879,170.7556)">
            <path
               d="m 0,0 c 0,0 -8.127,-4.609 -10.078,-5.92 -1.952,-1.309 0.226,-16.707 0.226,-16.707 l 10.507,3.687 5.098,-9.326 10.312,6.289 9.739,-6.289 c 0,0 6.235,16.169 5.996,19.037 C 31.561,-6.362 21.587,0.47 21.587,0.47 Z"
               style="fill:#ffd58f;fill-opacity:1;fill-rule:nonzero;stroke:none"
               id="path312" />
          </g>
          <g
             id="g314"
             transform="translate(643.3434,152.8239)">
            <path
               d="m 0,0 v 0 c -6.151,-0.255 -11.286,4.646 -11.318,10.802 l -0.037,7.13 c -12.081,-3.812 -21.467,1.928 -25.62,12.327 -1.035,2.588 -1.741,5.458 -2.093,8.552 -0.036,0.377 -0.071,0.764 -0.106,1.14 l -3.058,37.136 50.85,5.328 1.797,-71.282 C 10.564,5.2 5.929,0.245 0,0"
               style="fill:#ee8c5f;fill-opacity:1;fill-rule:nonzero;stroke:none"
               id="path316" />
          </g>
          <g
             id="g318"
             transform="translate(596.0289,204.9391)">
            <path
               d="M 0,0 C 2.199,7.414 11.688,15.416 17.645,20.349 32.082,0.657 60.398,-5.235 72.406,4.834 73.272,11.989 70.871,28.583 61.991,37.628 50.085,49.755 29.046,49.168 19.163,44.168 -1.764,33.582 -2.708,6.702 0,0"
               style="fill:#282828;fill-opacity:1;fill-rule:nonzero;stroke:none"
               id="path320" />
          </g>
          <g
             id="g322"
             transform="translate(647.86,197.5534)">
            <path
               d="m 0,0 c 0,-4.998 4.028,-8.823 8.998,-8.543 4.97,0.279 8.998,4.558 8.998,9.555 0,4.998 -4.028,8.822 -8.998,8.543 C 4.028,9.275 0,4.997 0,0"
               style="fill:#ee8c5f;fill-opacity:1;fill-rule:nonzero;stroke:none"
               id="path324" />
          </g>
          <g
             id="g326"
             transform="translate(660.5729,199.5329)">
            <path
               d="M 0,0 C -4.354,1.939 -7.336,0.211 -8.708,-3.745"
               style="fill:none;stroke:#1f1f1f;stroke-width:0.75;stroke-linecap:butt;stroke-linejoin:miter;stroke-miterlimit:10;stroke-dasharray:none;stroke-opacity:1"
               id="path328" />
          </g>
          <g
             id="g330"
             transform="translate(624.3336,212.0876)">
            <path
               d="m 0,0 c -0.029,-1.109 6.13,-2.172 9.792,-2.269 3.661,-0.096 4.945,0.77 4.976,1.88 0.028,1.11 -4.423,2.127 -8.085,2.223 C 3.021,1.931 0.029,1.109 0,0"
               style="fill:#1f1f1f;fill-opacity:1;fill-rule:nonzero;stroke:none"
               id="path332" />
          </g>
          <g
             id="g334"
             transform="translate(624.7828,198.6237)">
            <path
               d="M 0,0 C -0.055,-2.098 0.71,-3.82 1.709,-3.846 2.707,-3.872 3.562,-2.193 3.617,-0.095 3.672,2.003 2.907,3.725 1.908,3.751 0.91,3.777 0.056,2.098 0,0"
               style="fill:#2c1817;fill-opacity:1;fill-rule:nonzero;stroke:none"
               id="path336" />
          </g>
          <g
             id="g338"
             transform="translate(611.5045,212.4255)">
            <path
               d="m 0,0 c -0.029,-1.11 -6.236,-1.847 -9.898,-1.75 -3.662,0.097 -4.899,1.029 -4.87,2.139 0.03,1.109 4.529,1.891 8.191,1.795 C -2.916,2.087 0.029,1.109 0,0"
               style="fill:#1f1f1f;fill-opacity:1;fill-rule:nonzero;stroke:none"
               id="path340" />
          </g>
          <g
             id="g342"
             transform="translate(610.3463,199.0036)">
            <path
               d="m 0,0 c -0.055,-2.098 -0.909,-3.776 -1.907,-3.751 -0.999,0.026 -1.764,1.748 -1.709,3.847 0.055,2.097 0.91,3.777 1.908,3.751 C -0.709,3.82 0.056,2.098 0,0"
               style="fill:#2c1817;fill-opacity:1;fill-rule:nonzero;stroke:none"
               id="path344" />
          </g>
          <g
             id="g346"
             transform="translate(617.8951,191.3688)">
            <path
               d="m 0,0 c -0.729,0.038 -1.493,-0.138 -2.051,-0.61 -0.557,-0.473 -0.862,-1.272 -0.636,-1.967 0.342,-1.045 1.598,-1.422 2.675,-1.645"
               style="fill:none;stroke:#1f1f1f;stroke-width:0.75;stroke-linecap:butt;stroke-linejoin:miter;stroke-miterlimit:10;stroke-dasharray:none;stroke-opacity:1"
               id="path348" />
          </g>
          <g
             id="g350"
             transform="translate(631.986,170.7585)">
            <path
               d="m 0,0 c 0,0 10.5,1.992 15.874,8.066 0,0 1.48,-9.129 -3.544,-13.563 C 8.392,-8.974 1.622,-7.971 0.039,-7.133 Z"
               style="fill:#282828;fill-opacity:1;fill-rule:nonzero;stroke:none"
               id="path352" />
          </g>
          <g
             id="g354"
             transform="translate(610.9362,249.2365)">
            <path
               d="m 0,0 c 0,0 11.276,4.556 20.832,3.22 9.94,-1.388 23.075,-12.563 23.957,-39.814 h 5.588 c 0,0 0.68,41.873 -25.713,43.977 C 5.776,8.889 0,0 0,0"
               style="fill:#113b54;fill-opacity:1;fill-rule:nonzero;stroke:none"
               id="path356" />
          </g>
          <g
             id="g358"
             transform="translate(670.0934,199.0515)">
            <path
               d="m 0,0 c 0,-9.207 -6.377,-16.67 -14.243,-16.67 -7.866,0 -9.411,7.463 -9.411,16.67 0,9.207 1.545,16.67 9.411,16.67 C -6.377,16.67 0,9.207 0,0"
               style="fill:#113b54;fill-opacity:1;fill-rule:nonzero;stroke:none"
               id="path360" />
          </g>
          <g
             id="g362"
             transform="translate(623.5504,173.8259)">
            <path
               d="M 0,0 C 5.273,-3.721 18.011,-4.93 22.202,-2.012 26.146,0.735 31.798,9.544 32.827,12.47"
               style="fill:none;stroke:#113b54;stroke-width:1;stroke-linecap:butt;stroke-linejoin:miter;stroke-miterlimit:10;stroke-dasharray:none;stroke-opacity:1"
               id="path364" />
          </g>
          <g
             id="g366"
             transform="translate(670.0934,199.0515)">
            <path
               d="m 0,0 c 0,-9.207 -5.247,-16.67 -11.721,-16.67 -6.472,0 -7.744,7.463 -7.744,16.67 0,9.207 1.272,16.67 7.744,16.67 C -5.247,16.67 0,9.207 0,0"
               style="fill:#164969;fill-opacity:1;fill-rule:nonzero;stroke:none"
               id="path368" />
          </g>
          <g
             id="g370"
             transform="translate(626.0494,173.8259)">
            <path
               d="m 0,0 c 0,-1.381 -1.119,-2.5 -2.499,-2.5 -1.381,0 -2.5,1.119 -2.5,2.5 0,1.38 1.119,2.499 2.5,2.499 C -1.119,2.499 0,1.38 0,0"
               style="fill:#164969;fill-opacity:1;fill-rule:nonzero;stroke:none"
               id="path372" />
          </g>
          <g
             id="g374"
             transform="translate(615.1334,180.1481)">
            <path
               d="m 0,0 h 11.458 c 0,0 -2.185,-3.823 -6.742,-3.823 C 0.157,-3.823 0,0 0,0"
               style="fill:#eeeeee;fill-opacity:1;fill-rule:nonzero;stroke:none"
               id="path376" />
          </g>
          <g
             id="g378"
             transform="translate(610.4391,187.1413)">
            <path
               d="M 0,0 C 0,-1.776 -1.659,-3.317 -4.07,-4.059 -5.105,-1.471 -5.812,1.399 -6.164,4.493 -2.671,4.141 0,2.259 0,0"
               style="fill:#e67950;fill-opacity:1;fill-rule:nonzero;stroke:none"
               id="path380" />
          </g>
          <g
             id="g382"
             transform="translate(642.4928,187.1472)">
            <path
               d="m 0,0 c 0,-2.517 -3.314,-4.557 -7.402,-4.557 -4.088,0 -7.402,2.04 -7.402,4.557 0,2.516 3.314,4.556 7.402,4.556 C -3.314,4.556 0,2.516 0,0"
               style="fill:#e67950;fill-opacity:1;fill-rule:nonzero;stroke:none"
               id="path384" />
          </g>
          <g
             id="g386"
             transform="translate(661.7037,61.7429)">
            <path
               d="m 0,0 -76.893,-11.915 -0.786,-13.523 H 30.94 c 5.494,0 3.848,27.046 3.848,27.046 z"
               style="fill:#ee8c5f;fill-opacity:1;fill-rule:nonzero;stroke:none"
               id="path388" />
          </g>
          <g
             id="g390"
             transform="translate(584.8112,49.8278)">
            <path
               d="m 0,0 c 0,0 -18.341,5.101 -20.944,5.269 -2.604,0.168 -17.36,-10.464 -16.708,-12.851 0.65,-2.387 11.066,-0.435 15.189,4.99 0,0 6.403,-11.285 21.677,-10.931 z"
               style="fill:#ee8c5f;fill-opacity:1;fill-rule:nonzero;stroke:none"
               id="path392" />
          </g>
          <g
             id="g394"
             transform="translate(673.817,154.6891)">
            <path
               d="M 0,0 C -18.557,-0.244 -11.31,-91.338 -11.31,-91.338 H 22.237 C 22.237,-91.338 25.93,0.342 0,0"
               style="fill:#fcfffc;fill-opacity:1;fill-rule:nonzero;stroke:none"
               id="path396" />
          </g>
          <g
             id="g398"
             transform="translate(661.7037,61.7429)">
            <path
               d="m 0,0 0.599,10.731 23.35,2.693 2.862,-5.017 4.132,5.017 h 6.171 V 1.608 Z"
               style="fill:#ffd58f;fill-opacity:1;fill-rule:nonzero;stroke:none"
               id="path400" />
          </g>
          <g
             id="g402"
             transform="translate(661.7037,61.7429)">
            <path
               d="M 0,0 2.091,64.193"
               style="fill:none;stroke:#1f1f1f;stroke-width:0.75;stroke-linecap:butt;stroke-linejoin:miter;stroke-miterlimit:10;stroke-dasharray:none;stroke-opacity:1"
               id="path404" />
          </g>
          <g
             id="g406"
             transform="translate(620.8629,160.278)">
            <path
               d="m 0,0 -14.136,-10.415 4.209,-6.506 -11.69,-6.982 c 0,0 -2.416,-12.035 -2.509,-14.887 -0.093,-2.854 1.389,-56.203 9.214,-57.07"
               style="fill:none;stroke:#1f1f1f;stroke-width:0.75;stroke-linecap:butt;stroke-linejoin:miter;stroke-miterlimit:10;stroke-dasharray:none;stroke-opacity:1"
               id="path408" />
          </g>
          <g
             id="g410"
             transform="translate(423.2457,45.3415)">
            <path
               d="M 0,0 -46.157,91.033 H 84.396 l 50.74,-100.07 H 14.715 C 8.499,-9.037 2.811,-5.544 0,0"
               style="fill:#e3f8ff;fill-opacity:1;fill-rule:nonzero;stroke:none"
               id="path412" />
          </g>
          <g
             id="g414"
             transform="translate(550.2584,52.3259)">
            <path
               d="M 0,0 -42.616,84.049 H -52.749 L -6.592,-6.984 c 2.812,-5.544 8.499,-9.037 14.715,-9.037 h 109.159 c 2.495,0 4.519,2.023 4.519,4.518 0,2.496 -2.024,4.52 -4.519,4.52 H 11.371 C 6.568,-6.983 2.172,-4.284 0,0"
               style="fill:#bedfe8;fill-opacity:1;fill-rule:nonzero;stroke:none"
               id="path416" />
          </g>
          <g
             id="g418"
             transform="translate(637.1276,39.3093)">
            <path
               d="m 0,0 h -60.455 c -0.844,0 -1.528,0.684 -1.528,1.528 0,0.844 0.684,1.529 1.528,1.529 H 0 C 0.844,3.057 1.528,2.372 1.528,1.528 1.528,0.684 0.844,0 0,0"
               style="fill:#7fbbc9;fill-opacity:1;fill-rule:nonzero;stroke:none"
               id="path420" />
          </g>
          <g
             id="g422"
             transform="translate(647.3727,40.8376)">
            <path
               d="m 0,0 c 0,-0.845 -0.685,-1.528 -1.528,-1.528 -0.844,0 -1.529,0.683 -1.529,1.528 0,0.844 0.685,1.528 1.529,1.528 C -0.685,1.528 0,0.844 0,0"
               style="fill:#7fbbc9;fill-opacity:1;fill-rule:nonzero;stroke:none"
               id="path424" />
          </g>
          <g
             id="g426"
             transform="translate(653.2145,40.8376)">
            <path
               d="m 0,0 c 0,-0.845 -0.685,-1.528 -1.528,-1.528 -0.844,0 -1.529,0.683 -1.529,1.528 0,0.844 0.685,1.528 1.529,1.528 C -0.685,1.528 0,0.844 0,0"
               style="fill:#7fbbc9;fill-opacity:1;fill-rule:nonzero;stroke:none"
               id="path428" />
          </g>
          <g
             id="g430"
             transform="translate(585.2369,63.7292)">
            <path
               d="M 0,0 5.76,-2.543"
               style="fill:none;stroke:#1f1f1f;stroke-width:0.75;stroke-linecap:butt;stroke-linejoin:miter;stroke-miterlimit:10;stroke-dasharray:none;stroke-opacity:1"
               id="path432" />
          </g>
        </g>
      </g>
    </g>
  </g>
</svg>
